<svg xmlns="http://www.w3.org/2000/svg" version="1.1" xmlns:xlink="http://www.w3.org/1999/xlink" xmlns:svgjs="http://svgjs.dev/svgjs" width="1440" height="560" preserveAspectRatio="none" viewBox="0 0 1440 560"><g mask="url(&quot;#SvgjsMask1104&quot;)" fill="none"><rect width="1440" height="560" x="0" y="0" fill="#0e2a47"></rect><path d="M-63.91 407.61L-63.91 407.61" stroke="#132e65" stroke-width="1.5"></path><path d="M-63.91 407.61L-91.3 524.84" stroke="#132e65" stroke-width="1.5"></path><path d="M-63.91 407.61L68.57 529.5" stroke="#132e65" stroke-width="1.5"></path><path d="M-63.91 407.61L80.9 639.26" stroke="#132e65" stroke-width="1.5"></path><path d="M-63.91 407.61L-93.67 698.37" stroke="#132e65" stroke-width="1.5"></path><path d="M-91.3 524.84L-91.3 524.84" stroke="#132e65" stroke-width="1.5"></path><path d="M-91.3 524.84L68.57 529.5" stroke="#132e65" stroke-width="1.5"></path><path d="M-91.3 524.84L-93.67 698.37" stroke="#132e65" stroke-width="1.5"></path><path d="M-91.3 524.84L80.9 639.26" stroke="#132e65" stroke-width="1.5"></path><path d="M-91.3 524.84L238.45 561.7" stroke="#132e65" stroke-width="1.5"></path><path d="M-91.3 524.84L225.81 689.27" stroke="#132e65" stroke-width="1.5"></path><path d="M-93.67 698.37L-93.67 698.37" stroke="#132e65" stroke-width="1.5"></path><path d="M-93.67 698.37L80.9 639.26" stroke="#132e65" stroke-width="1.5"></path><path d="M-93.67 698.37L68.57 529.5" stroke="#132e65" stroke-width="1.5"></path><path d="M68.57 529.5L68.57 529.5" stroke="#132e65" stroke-width="1.5"></path><path d="M68.57 529.5L80.9 639.26" stroke="#132e65" stroke-width="1.5"></path><path d="M68.57 529.5L238.45 561.7" stroke="#132e65" stroke-width="1.5"></path><path d="M80.9 639.26L80.9 639.26" stroke="#132e65" stroke-width="1.5"></path><path d="M80.9 639.26L225.81 689.27" stroke="#132e65" stroke-width="1.5"></path><path d="M80.9 639.26L238.45 561.7" stroke="#132e65" stroke-width="1.5"></path><path d="M259.67 374.16L259.67 374.16" stroke="#132e65" stroke-width="1.5"></path><path d="M259.67 374.16L355.91 404.1" stroke="#132e65" stroke-width="1.5"></path><path d="M259.67 374.16L345.08 506.03" stroke="#132e65" stroke-width="1.5"></path><path d="M259.67 374.16L238.45 561.7" stroke="#132e65" stroke-width="1.5"></path><path d="M259.67 374.16L68.57 529.5" stroke="#132e65" stroke-width="1.5"></path><path d="M238.45 561.7L238.45 561.7" stroke="#132e65" stroke-width="1.5"></path><path d="M238.45 561.7L345.08 506.03" stroke="#132e65" stroke-width="1.5"></path><path d="M238.45 561.7L225.81 689.27" stroke="#132e65" stroke-width="1.5"></path><path d="M238.45 561.7L366.69 659.57" stroke="#132e65" stroke-width="1.5"></path><path d="M225.81 689.27L225.81 689.27" stroke="#132e65" stroke-width="1.5"></path><path d="M225.81 689.27L366.69 659.57" stroke="#132e65" stroke-width="1.5"></path><path d="M225.81 689.27L345.08 506.03" stroke="#132e65" stroke-width="1.5"></path><path d="M225.81 689.27L68.57 529.5" stroke="#132e65" stroke-width="1.5"></path><path d="M225.81 689.27L511.23 668.32" stroke="#132e65" stroke-width="1.5"></path><path d="M355.91 404.1L355.91 404.1" stroke="#132e65" stroke-width="1.5"></path><path d="M355.91 404.1L345.08 506.03" stroke="#132e65" stroke-width="1.5"></path><path d="M355.91 404.1L520.86 367.51" stroke="#132e65" stroke-width="1.5"></path><path d="M355.91 404.1L521.82 500.49" stroke="#132e65" stroke-width="1.5"></path><path d="M345.08 506.03L345.08 506.03" stroke="#132e65" stroke-width="1.5"></path><path d="M345.08 506.03L366.69 659.57" stroke="#132e65" stroke-width="1.5"></path><path d="M366.69 659.57L366.69 659.57" stroke="#132e65" stroke-width="1.5"></path><path d="M366.69 659.57L511.23 668.32" stroke="#132e65" stroke-width="1.5"></path><path d="M520.86 367.51L520.86 367.51" stroke="#132e65" stroke-width="1.5"></path><path d="M520.86 367.51L521.82 500.49" stroke="#132e65" stroke-width="1.5"></path><path d="M520.86 367.51L705.27 396.65" stroke="#132e65" stroke-width="1.5"></path><path d="M521.82 500.49L521.82 500.49" stroke="#132e65" stroke-width="1.5"></path><path d="M521.82 500.49L511.23 668.32" stroke="#132e65" stroke-width="1.5"></path><path d="M521.82 500.49L345.08 506.03" stroke="#132e65" stroke-width="1.5"></path><path d="M511.23 668.32L511.23 668.32" stroke="#132e65" stroke-width="1.5"></path><path d="M701.16 260.56L701.16 260.56" stroke="#132e65" stroke-width="1.5"></path><path d="M701.16 260.56L805.19 224.86" stroke="#132e65" stroke-width="1.5"></path><path d="M701.16 260.56L705.27 396.65" stroke="#132e65" stroke-width="1.5"></path><path d="M705.27 396.65L705.27 396.65" stroke="#132e65" stroke-width="1.5"></path><path d="M705.27 396.65L804.03 362.35" stroke="#132e65" stroke-width="1.5"></path><path d="M705.27 396.65L831.71 492.41" stroke="#132e65" stroke-width="1.5"></path><path d="M705.27 396.65L805.19 224.86" stroke="#132e65" stroke-width="1.5"></path><path d="M702.18 705.4L702.18 705.4" stroke="#132e65" stroke-width="1.5"></path><path d="M702.18 705.4L816.23 704.73" stroke="#132e65" stroke-width="1.5"></path><path d="M702.18 705.4L511.23 668.32" stroke="#132e65" stroke-width="1.5"></path><path d="M702.18 705.4L831.71 492.41" stroke="#132e65" stroke-width="1.5"></path><path d="M702.18 705.4L521.82 500.49" stroke="#132e65" stroke-width="1.5"></path><path d="M702.18 705.4L995.44 701.02" stroke="#132e65" stroke-width="1.5"></path><path d="M702.18 705.4L705.27 396.65" stroke="#132e65" stroke-width="1.5"></path><path d="M805.19 224.86L805.19 224.86" stroke="#132e65" stroke-width="1.5"></path><path d="M805.19 224.86L804.03 362.35" stroke="#132e65" stroke-width="1.5"></path><path d="M805.19 224.86L991.03 229.85" stroke="#132e65" stroke-width="1.5"></path><path d="M805.19 224.86L979.24 338.86" stroke="#132e65" stroke-width="1.5"></path><path d="M805.19 224.86L985.28 50.48" stroke="#132e65" stroke-width="1.5"></path><path d="M804.03 362.35L804.03 362.35" stroke="#132e65" stroke-width="1.5"></path><path d="M804.03 362.35L831.71 492.41" stroke="#132e65" stroke-width="1.5"></path><path d="M804.03 362.35L701.16 260.56" stroke="#132e65" stroke-width="1.5"></path><path d="M831.71 492.41L831.71 492.41" stroke="#132e65" stroke-width="1.5"></path><path d="M831.71 492.41L816.23 704.73" stroke="#132e65" stroke-width="1.5"></path><path d="M831.71 492.41L979.24 338.86" stroke="#132e65" stroke-width="1.5"></path><path d="M831.71 492.41L995.44 701.02" stroke="#132e65" stroke-width="1.5"></path><path d="M816.23 704.73L816.23 704.73" stroke="#132e65" stroke-width="1.5"></path><path d="M939.73 -99.63L939.73 -99.63" stroke="#132e65" stroke-width="1.5"></path><path d="M939.73 -99.63L985.28 50.48" stroke="#132e65" stroke-width="1.5"></path><path d="M939.73 -99.63L1141.72 -103.16" stroke="#132e65" stroke-width="1.5"></path><path d="M939.73 -99.63L1132.27 107.86" stroke="#132e65" stroke-width="1.5"></path><path d="M985.28 50.48L985.28 50.48" stroke="#132e65" stroke-width="1.5"></path><path d="M991.03 229.85L991.03 229.85" stroke="#132e65" stroke-width="1.5"></path><path d="M991.03 229.85L979.24 338.86" stroke="#132e65" stroke-width="1.5"></path><path d="M991.03 229.85L1135.77 253.08" stroke="#132e65" stroke-width="1.5"></path><path d="M991.03 229.85L985.28 50.48" stroke="#132e65" stroke-width="1.5"></path><path d="M979.24 338.86L979.24 338.86" stroke="#132e65" stroke-width="1.5"></path><path d="M979.24 338.86L804.03 362.35" stroke="#132e65" stroke-width="1.5"></path><path d="M979.24 338.86L1135.77 253.08" stroke="#132e65" stroke-width="1.5"></path><path d="M979.24 338.86L1159.17 400.48" stroke="#132e65" stroke-width="1.5"></path><path d="M995.44 701.02L995.44 701.02" stroke="#132e65" stroke-width="1.5"></path><path d="M995.44 701.02L1147.73 708.53" stroke="#132e65" stroke-width="1.5"></path><path d="M995.44 701.02L816.23 704.73" stroke="#132e65" stroke-width="1.5"></path><path d="M995.44 701.02L1157.27 520.42" stroke="#132e65" stroke-width="1.5"></path><path d="M1141.72 -103.16L1141.72 -103.16" stroke="#132e65" stroke-width="1.5"></path><path d="M1141.72 -103.16L1274.94 -49.41" stroke="#132e65" stroke-width="1.5"></path><path d="M1132.27 107.86L1132.27 107.86" stroke="#132e65" stroke-width="1.5"></path><path d="M1132.27 107.86L1135.77 253.08" stroke="#132e65" stroke-width="1.5"></path><path d="M1132.27 107.86L985.28 50.48" stroke="#132e65" stroke-width="1.5"></path><path d="M1132.27 107.86L1299 73.1" stroke="#132e65" stroke-width="1.5"></path><path d="M1135.77 253.08L1135.77 253.08" stroke="#132e65" stroke-width="1.5"></path><path d="M1135.77 253.08L1258.88 251.4" stroke="#132e65" stroke-width="1.5"></path><path d="M1135.77 253.08L1159.17 400.48" stroke="#132e65" stroke-width="1.5"></path><path d="M1135.77 253.08L1260.63 394.48" stroke="#132e65" stroke-width="1.5"></path><path d="M1159.17 400.48L1159.17 400.48" stroke="#132e65" stroke-width="1.5"></path><path d="M1159.17 400.48L1260.63 394.48" stroke="#132e65" stroke-width="1.5"></path><path d="M1159.17 400.48L1157.27 520.42" stroke="#132e65" stroke-width="1.5"></path><path d="M1159.17 400.48L1267.22 519.53" stroke="#132e65" stroke-width="1.5"></path><path d="M1159.17 400.48L1258.88 251.4" stroke="#132e65" stroke-width="1.5"></path><path d="M1157.27 520.42L1157.27 520.42" stroke="#132e65" stroke-width="1.5"></path><path d="M1157.27 520.42L1267.22 519.53" stroke="#132e65" stroke-width="1.5"></path><path d="M1157.27 520.42L1260.63 394.48" stroke="#132e65" stroke-width="1.5"></path><path d="M1157.27 520.42L1147.73 708.53" stroke="#132e65" stroke-width="1.5"></path><path d="M1157.27 520.42L1263.91 677.72" stroke="#132e65" stroke-width="1.5"></path><path d="M1147.73 708.53L1147.73 708.53" stroke="#132e65" stroke-width="1.5"></path><path d="M1147.73 708.53L1263.91 677.72" stroke="#132e65" stroke-width="1.5"></path><path d="M1147.73 708.53L1267.22 519.53" stroke="#132e65" stroke-width="1.5"></path><path d="M1147.73 708.53L1411.39 637.96" stroke="#132e65" stroke-width="1.5"></path><path d="M1147.73 708.53L1159.17 400.48" stroke="#132e65" stroke-width="1.5"></path><path d="M1274.94 -49.41L1274.94 -49.41" stroke="#132e65" stroke-width="1.5"></path><path d="M1274.94 -49.41L1390.38 -40.46" stroke="#132e65" stroke-width="1.5"></path><path d="M1299 73.1L1299 73.1" stroke="#132e65" stroke-width="1.5"></path><path d="M1299 73.1L1274.94 -49.41" stroke="#132e65" stroke-width="1.5"></path><path d="M1299 73.1L1434.32 82.08" stroke="#132e65" stroke-width="1.5"></path><path d="M1299 73.1L1390.38 -40.46" stroke="#132e65" stroke-width="1.5"></path><path d="M1258.88 251.4L1258.88 251.4" stroke="#132e65" stroke-width="1.5"></path><path d="M1258.88 251.4L1260.63 394.48" stroke="#132e65" stroke-width="1.5"></path><path d="M1258.88 251.4L1417.06 251.18" stroke="#132e65" stroke-width="1.5"></path><path d="M1260.63 394.48L1260.63 394.48" stroke="#132e65" stroke-width="1.5"></path><path d="M1260.63 394.48L1267.22 519.53" stroke="#132e65" stroke-width="1.5"></path><path d="M1260.63 394.48L1390.69 516.34" stroke="#132e65" stroke-width="1.5"></path><path d="M1267.22 519.53L1267.22 519.53" stroke="#132e65" stroke-width="1.5"></path><path d="M1267.22 519.53L1390.69 516.34" stroke="#132e65" stroke-width="1.5"></path><path d="M1267.22 519.53L1263.91 677.72" stroke="#132e65" stroke-width="1.5"></path><path d="M1263.91 677.72L1263.91 677.72" stroke="#132e65" stroke-width="1.5"></path><path d="M1390.38 -40.46L1390.38 -40.46" stroke="#132e65" stroke-width="1.5"></path><path d="M1390.38 -40.46L1434.32 82.08" stroke="#132e65" stroke-width="1.5"></path><path d="M1434.32 82.08L1434.32 82.08" stroke="#132e65" stroke-width="1.5"></path><path d="M1434.32 82.08L1586.28 44.42" stroke="#132e65" stroke-width="1.5"></path><path d="M1417.06 251.18L1417.06 251.18" stroke="#132e65" stroke-width="1.5"></path><path d="M1417.06 251.18L1560.74 215.51" stroke="#132e65" stroke-width="1.5"></path><path d="M1417.06 251.18L1434.32 82.08" stroke="#132e65" stroke-width="1.5"></path><path d="M1417.06 251.18L1260.63 394.48" stroke="#132e65" stroke-width="1.5"></path><path d="M1390.69 516.34L1390.69 516.34" stroke="#132e65" stroke-width="1.5"></path><path d="M1390.69 516.34L1411.39 637.96" stroke="#132e65" stroke-width="1.5"></path><path d="M1411.39 637.96L1411.39 637.96" stroke="#132e65" stroke-width="1.5"></path><path d="M1411.39 637.96L1557.59 675.82" stroke="#132e65" stroke-width="1.5"></path><path d="M1411.39 637.96L1263.91 677.72" stroke="#132e65" stroke-width="1.5"></path><path d="M1411.39 637.96L1267.22 519.53" stroke="#132e65" stroke-width="1.5"></path><path d="M1602.95 -59.45L1602.95 -59.45" stroke="#132e65" stroke-width="1.5"></path><path d="M1602.95 -59.45L1586.28 44.42" stroke="#132e65" stroke-width="1.5"></path><path d="M1602.95 -59.45L1390.38 -40.46" stroke="#132e65" stroke-width="1.5"></path><path d="M1586.28 44.42L1586.28 44.42" stroke="#132e65" stroke-width="1.5"></path><path d="M1586.28 44.42L1560.74 215.51" stroke="#132e65" stroke-width="1.5"></path><path d="M1586.28 44.42L1390.38 -40.46" stroke="#132e65" stroke-width="1.5"></path><path d="M1586.28 44.42L1417.06 251.18" stroke="#132e65" stroke-width="1.5"></path><path d="M1586.28 44.42L1299 73.1" stroke="#132e65" stroke-width="1.5"></path><path d="M1560.74 215.51L1560.74 215.51" stroke="#132e65" stroke-width="1.5"></path><path d="M1560.74 215.51L1608.92 366.08" stroke="#132e65" stroke-width="1.5"></path><path d="M1608.92 366.08L1608.92 366.08" stroke="#132e65" stroke-width="1.5"></path><path d="M1608.92 366.08L1585.71 534.22" stroke="#132e65" stroke-width="1.5"></path><path d="M1608.92 366.08L1417.06 251.18" stroke="#132e65" stroke-width="1.5"></path><path d="M1608.92 366.08L1390.69 516.34" stroke="#132e65" stroke-width="1.5"></path><path d="M1585.71 534.22L1585.71 534.22" stroke="#132e65" stroke-width="1.5"></path><path d="M1585.71 534.22L1557.59 675.82" stroke="#132e65" stroke-width="1.5"></path><path d="M1585.71 534.22L1390.69 516.34" stroke="#132e65" stroke-width="1.5"></path><path d="M1585.71 534.22L1411.39 637.96" stroke="#132e65" stroke-width="1.5"></path><path d="M1557.59 675.82L1557.59 675.82" stroke="#132e65" stroke-width="1.5"></path><path d="M1557.59 675.82L1390.69 516.34" stroke="#132e65" stroke-width="1.5"></path><path d="M1557.59 675.82L1263.91 677.72" stroke="#132e65" stroke-width="1.5"></path><path d="M1557.59 675.82L1608.92 366.08" stroke="#132e65" stroke-width="1.5"></path><circle r="5" cx="-63.91" cy="407.61" fill="#132e65"></circle><circle r="5" cx="-91.3" cy="524.84" fill="#132e65"></circle><circle r="5" cx="-93.67" cy="698.37" fill="#132e65"></circle><circle r="5" cx="68.57" cy="529.5" fill="#132e65"></circle><circle r="5" cx="80.9" cy="639.26" fill="#132e65"></circle><circle r="5" cx="259.67" cy="374.16" fill="#132e65"></circle><circle r="5" cx="238.45" cy="561.7" fill="#132e65"></circle><circle r="5" cx="225.81" cy="689.27" fill="#132e65"></circle><circle r="5" cx="355.91" cy="404.1" fill="#132e65"></circle><circle r="5" cx="345.08" cy="506.03" fill="#132e65"></circle><circle r="5" cx="366.69" cy="659.57" fill="#132e65"></circle><circle r="5" cx="520.86" cy="367.51" fill="#132e65"></circle><circle r="5" cx="521.82" cy="500.49" fill="#132e65"></circle><circle r="5" cx="511.23" cy="668.32" fill="#132e65"></circle><circle r="5" cx="701.16" cy="260.56" fill="#132e65"></circle><circle r="5" cx="705.27" cy="396.65" fill="#132e65"></circle><circle r="5" cx="702.18" cy="705.4" fill="#132e65"></circle><circle r="5" cx="805.19" cy="224.86" fill="#132e65"></circle><circle r="5" cx="804.03" cy="362.35" fill="#132e65"></circle><circle r="5" cx="831.71" cy="492.41" fill="#132e65"></circle><circle r="5" cx="816.23" cy="704.73" fill="#132e65"></circle><circle r="5" cx="939.73" cy="-99.63" fill="#132e65"></circle><circle r="5" cx="985.28" cy="50.48" fill="#132e65"></circle><circle r="5" cx="991.03" cy="229.85" fill="#132e65"></circle><circle r="5" cx="979.24" cy="338.86" fill="#132e65"></circle><circle r="5" cx="995.44" cy="701.02" fill="#132e65"></circle><circle r="5" cx="1141.72" cy="-103.16" fill="#132e65"></circle><circle r="5" cx="1132.27" cy="107.86" fill="#132e65"></circle><circle r="5" cx="1135.77" cy="253.08" fill="#132e65"></circle><circle r="5" cx="1159.17" cy="400.48" fill="#132e65"></circle><circle r="5" cx="1157.27" cy="520.42" fill="#132e65"></circle><circle r="5" cx="1147.73" cy="708.53" fill="#132e65"></circle><circle r="5" cx="1274.94" cy="-49.41" fill="#132e65"></circle><circle r="5" cx="1299" cy="73.1" fill="#132e65"></circle><circle r="5" cx="1258.88" cy="251.4" fill="#132e65"></circle><circle r="5" cx="1260.63" cy="394.48" fill="#132e65"></circle><circle r="5" cx="1267.22" cy="519.53" fill="#132e65"></circle><circle r="5" cx="1263.91" cy="677.72" fill="#132e65"></circle><circle r="5" cx="1390.38" cy="-40.46" fill="#132e65"></circle><circle r="5" cx="1434.32" cy="82.08" fill="#132e65"></circle><circle r="5" cx="1417.06" cy="251.18" fill="#132e65"></circle><circle r="5" cx="1390.69" cy="516.34" fill="#132e65"></circle><circle r="5" cx="1411.39" cy="637.96" fill="#132e65"></circle><circle r="5" cx="1602.95" cy="-59.45" fill="#132e65"></circle><circle r="5" cx="1586.28" cy="44.42" fill="#132e65"></circle><circle r="5" cx="1560.74" cy="215.51" fill="#132e65"></circle><circle r="5" cx="1608.92" cy="366.08" fill="#132e65"></circle><circle r="5" cx="1585.71" cy="534.22" fill="#132e65"></circle><circle r="5" cx="1557.59" cy="675.82" fill="#132e65"></circle><path d="M79.24 494.47L79.24 494.47" stroke="hsl(228.5, 77.2%, 51.5%)" stroke-width="1.5"></path><path d="M79.24 494.47L232.35 515.9" stroke="hsl(228.5, 77.2%, 51.5%)" stroke-width="1.5"></path><path d="M79.24 494.47L110.85 693" stroke="hsl(228.5, 77.2%, 51.5%)" stroke-width="1.5"></path><path d="M79.24 494.47L200.64 661.13" stroke="hsl(228.5, 77.2%, 51.5%)" stroke-width="1.5"></path><path d="M110.85 693L110.85 693" stroke="hsl(228.5, 77.2%, 51.5%)" stroke-width="1.5"></path><path d="M110.85 693L200.64 661.13" stroke="hsl(228.5, 77.2%, 51.5%)" stroke-width="1.5"></path><path d="M110.85 693L-50.29 685.35" stroke="hsl(228.5, 77.2%, 51.5%)" stroke-width="1.5"></path><path d="M232.35 515.9L232.35 515.9" stroke="hsl(228.5, 77.2%, 51.5%)" stroke-width="1.5"></path><path d="M232.35 515.9L352.95 548.82" stroke="hsl(228.5, 77.2%, 51.5%)" stroke-width="1.5"></path><path d="M670.77 378.14L670.77 378.14" stroke="hsl(228.5, 77.2%, 51.5%)" stroke-width="1.5"></path><path d="M670.77 378.14L661.34 543.19" stroke="hsl(228.5, 77.2%, 51.5%)" stroke-width="1.5"></path><path d="M670.77 378.14L835.36 345.09" stroke="hsl(228.5, 77.2%, 51.5%)" stroke-width="1.5"></path><path d="M670.77 378.14L502.8 403.55" stroke="hsl(228.5, 77.2%, 51.5%)" stroke-width="1.5"></path><path d="M670.77 378.14L836.15 527.76" stroke="hsl(228.5, 77.2%, 51.5%)" stroke-width="1.5"></path><path d="M670.77 378.14L492.26 549.96" stroke="hsl(228.5, 77.2%, 51.5%)" stroke-width="1.5"></path><path d="M1105.98 360.97L1105.98 360.97" stroke="hsl(228.5, 77.2%, 51.5%)" stroke-width="1.5"></path><path d="M1105.98 360.97L987.52 351.33" stroke="hsl(228.5, 77.2%, 51.5%)" stroke-width="1.5"></path><path d="M1105.98 360.97L1160.25 497.26" stroke="hsl(228.5, 77.2%, 51.5%)" stroke-width="1.5"></path><path d="M1295.67 62.59L1295.67 62.59" stroke="hsl(228.5, 77.2%, 51.5%)" stroke-width="1.5"></path><path d="M1295.67 62.59L1431.71 44.04" stroke="hsl(228.5, 77.2%, 51.5%)" stroke-width="1.5"></path><path d="M1295.67 62.59L1261.03 -78.92" stroke="hsl(228.5, 77.2%, 51.5%)" stroke-width="1.5"></path><path d="M1295.67 62.59L1419.56 -38.4" stroke="hsl(228.5, 77.2%, 51.5%)" stroke-width="1.5"></path><path d="M1295.67 62.59L1396.72 189.42" stroke="hsl(228.5, 77.2%, 51.5%)" stroke-width="1.5"></path><path d="M1295.67 62.59L1128.41 93.25" stroke="hsl(228.5, 77.2%, 51.5%)" stroke-width="1.5"></path><path d="M1295.67 62.59L1254.49 231.25" stroke="hsl(228.5, 77.2%, 51.5%)" stroke-width="1.5"></path><path d="M1254.49 231.25L1254.49 231.25" stroke="hsl(228.5, 77.2%, 51.5%)" stroke-width="1.5"></path><path d="M1254.49 231.25L1158.38 202.9" stroke="hsl(228.5, 77.2%, 51.5%)" stroke-width="1.5"></path><path d="M1254.49 231.25L1396.72 189.42" stroke="hsl(228.5, 77.2%, 51.5%)" stroke-width="1.5"></path><path d="M1254.49 231.25L1264.13 396.5" stroke="hsl(228.5, 77.2%, 51.5%)" stroke-width="1.5"></path><path d="M1254.49 231.25L1128.41 93.25" stroke="hsl(228.5, 77.2%, 51.5%)" stroke-width="1.5"></path><path d="M1436.74 358.33L1436.74 358.33" stroke="hsl(228.5, 77.2%, 51.5%)" stroke-width="1.5"></path><path d="M1436.74 358.33L1420.17 517.58" stroke="hsl(228.5, 77.2%, 51.5%)" stroke-width="1.5"></path><path d="M1436.74 358.33L1396.72 189.42" stroke="hsl(228.5, 77.2%, 51.5%)" stroke-width="1.5"></path><path d="M-50.29 685.35L-50.29 685.35" stroke="hsl(228.5, 77.2%, 51.5%)" stroke-width="1.5"></path><path d="M-50.29 685.35L79.24 494.47" stroke="hsl(228.5, 77.2%, 51.5%)" stroke-width="1.5"></path><path d="M-50.29 685.35L200.64 661.13" stroke="hsl(228.5, 77.2%, 51.5%)" stroke-width="1.5"></path><path d="M-50.29 685.35L232.35 515.9" stroke="hsl(228.5, 77.2%, 51.5%)" stroke-width="1.5"></path><path d="M-50.29 685.35L348.83 701.8" stroke="hsl(228.5, 77.2%, 51.5%)" stroke-width="1.5"></path><path d="M200.64 661.13L200.64 661.13" stroke="hsl(228.5, 77.2%, 51.5%)" stroke-width="1.5"></path><path d="M200.64 661.13L232.35 515.9" stroke="hsl(228.5, 77.2%, 51.5%)" stroke-width="1.5"></path><path d="M200.64 661.13L348.83 701.8" stroke="hsl(228.5, 77.2%, 51.5%)" stroke-width="1.5"></path><path d="M200.64 661.13L352.95 548.82" stroke="hsl(228.5, 77.2%, 51.5%)" stroke-width="1.5"></path><path d="M352.95 548.82L352.95 548.82" stroke="hsl(228.5, 77.2%, 51.5%)" stroke-width="1.5"></path><path d="M352.95 548.82L492.26 549.96" stroke="hsl(228.5, 77.2%, 51.5%)" stroke-width="1.5"></path><path d="M352.95 548.82L348.83 701.8" stroke="hsl(228.5, 77.2%, 51.5%)" stroke-width="1.5"></path><path d="M352.95 548.82L502.8 403.55" stroke="hsl(228.5, 77.2%, 51.5%)" stroke-width="1.5"></path><path d="M348.83 701.8L348.83 701.8" stroke="hsl(228.5, 77.2%, 51.5%)" stroke-width="1.5"></path><path d="M348.83 701.8L492.26 549.96" stroke="hsl(228.5, 77.2%, 51.5%)" stroke-width="1.5"></path><path d="M348.83 701.8L559.89 646.45" stroke="hsl(228.5, 77.2%, 51.5%)" stroke-width="1.5"></path><path d="M502.8 403.55L502.8 403.55" stroke="hsl(228.5, 77.2%, 51.5%)" stroke-width="1.5"></path><path d="M502.8 403.55L492.26 549.96" stroke="hsl(228.5, 77.2%, 51.5%)" stroke-width="1.5"></path><path d="M502.8 403.55L661.34 543.19" stroke="hsl(228.5, 77.2%, 51.5%)" stroke-width="1.5"></path><path d="M492.26 549.96L492.26 549.96" stroke="hsl(228.5, 77.2%, 51.5%)" stroke-width="1.5"></path><path d="M492.26 549.96L559.89 646.45" stroke="hsl(228.5, 77.2%, 51.5%)" stroke-width="1.5"></path><path d="M492.26 549.96L661.34 543.19" stroke="hsl(228.5, 77.2%, 51.5%)" stroke-width="1.5"></path><path d="M492.26 549.96L657.87 672.18" stroke="hsl(228.5, 77.2%, 51.5%)" stroke-width="1.5"></path><path d="M559.89 646.45L559.89 646.45" stroke="hsl(228.5, 77.2%, 51.5%)" stroke-width="1.5"></path><path d="M559.89 646.45L657.87 672.18" stroke="hsl(228.5, 77.2%, 51.5%)" stroke-width="1.5"></path><path d="M559.89 646.45L661.34 543.19" stroke="hsl(228.5, 77.2%, 51.5%)" stroke-width="1.5"></path><path d="M559.89 646.45L352.95 548.82" stroke="hsl(228.5, 77.2%, 51.5%)" stroke-width="1.5"></path><path d="M559.89 646.45L502.8 403.55" stroke="hsl(228.5, 77.2%, 51.5%)" stroke-width="1.5"></path><path d="M661.34 543.19L661.34 543.19" stroke="hsl(228.5, 77.2%, 51.5%)" stroke-width="1.5"></path><path d="M661.34 543.19L657.87 672.18" stroke="hsl(228.5, 77.2%, 51.5%)" stroke-width="1.5"></path><path d="M657.87 672.18L657.87 672.18" stroke="hsl(228.5, 77.2%, 51.5%)" stroke-width="1.5"></path><path d="M657.87 672.18L811.98 639.81" stroke="hsl(228.5, 77.2%, 51.5%)" stroke-width="1.5"></path><path d="M835.36 345.09L835.36 345.09" stroke="hsl(228.5, 77.2%, 51.5%)" stroke-width="1.5"></path><path d="M835.36 345.09L987.52 351.33" stroke="hsl(228.5, 77.2%, 51.5%)" stroke-width="1.5"></path><path d="M835.36 345.09L836.15 527.76" stroke="hsl(228.5, 77.2%, 51.5%)" stroke-width="1.5"></path><path d="M836.15 527.76L836.15 527.76" stroke="hsl(228.5, 77.2%, 51.5%)" stroke-width="1.5"></path><path d="M836.15 527.76L811.98 639.81" stroke="hsl(228.5, 77.2%, 51.5%)" stroke-width="1.5"></path><path d="M836.15 527.76L1004.32 515.07" stroke="hsl(228.5, 77.2%, 51.5%)" stroke-width="1.5"></path><path d="M836.15 527.76L661.34 543.19" stroke="hsl(228.5, 77.2%, 51.5%)" stroke-width="1.5"></path><path d="M811.98 639.81L811.98 639.81" stroke="hsl(228.5, 77.2%, 51.5%)" stroke-width="1.5"></path><path d="M811.98 639.81L661.34 543.19" stroke="hsl(228.5, 77.2%, 51.5%)" stroke-width="1.5"></path><path d="M811.98 639.81L1007.55 679.29" stroke="hsl(228.5, 77.2%, 51.5%)" stroke-width="1.5"></path><path d="M811.98 639.81L1004.32 515.07" stroke="hsl(228.5, 77.2%, 51.5%)" stroke-width="1.5"></path><path d="M811.98 639.81L559.89 646.45" stroke="hsl(228.5, 77.2%, 51.5%)" stroke-width="1.5"></path><path d="M987.99 233.51L987.99 233.51" stroke="hsl(228.5, 77.2%, 51.5%)" stroke-width="1.5"></path><path d="M987.99 233.51L987.52 351.33" stroke="hsl(228.5, 77.2%, 51.5%)" stroke-width="1.5"></path><path d="M987.99 233.51L1158.38 202.9" stroke="hsl(228.5, 77.2%, 51.5%)" stroke-width="1.5"></path><path d="M987.99 233.51L1105.98 360.97" stroke="hsl(228.5, 77.2%, 51.5%)" stroke-width="1.5"></path><path d="M987.99 233.51L835.36 345.09" stroke="hsl(228.5, 77.2%, 51.5%)" stroke-width="1.5"></path><path d="M987.52 351.33L987.52 351.33" stroke="hsl(228.5, 77.2%, 51.5%)" stroke-width="1.5"></path><path d="M987.52 351.33L1004.32 515.07" stroke="hsl(228.5, 77.2%, 51.5%)" stroke-width="1.5"></path><path d="M987.52 351.33L1160.25 497.26" stroke="hsl(228.5, 77.2%, 51.5%)" stroke-width="1.5"></path><path d="M1004.32 515.07L1004.32 515.07" stroke="hsl(228.5, 77.2%, 51.5%)" stroke-width="1.5"></path><path d="M1004.32 515.07L1160.25 497.26" stroke="hsl(228.5, 77.2%, 51.5%)" stroke-width="1.5"></path><path d="M1004.32 515.07L1007.55 679.29" stroke="hsl(228.5, 77.2%, 51.5%)" stroke-width="1.5"></path><path d="M1007.55 679.29L1007.55 679.29" stroke="hsl(228.5, 77.2%, 51.5%)" stroke-width="1.5"></path><path d="M1007.55 679.29L1143.7 669.48" stroke="hsl(228.5, 77.2%, 51.5%)" stroke-width="1.5"></path><path d="M1128.41 93.25L1128.41 93.25" stroke="hsl(228.5, 77.2%, 51.5%)" stroke-width="1.5"></path><path d="M1128.41 93.25L1158.38 202.9" stroke="hsl(228.5, 77.2%, 51.5%)" stroke-width="1.5"></path><path d="M1128.41 93.25L987.99 233.51" stroke="hsl(228.5, 77.2%, 51.5%)" stroke-width="1.5"></path><path d="M1158.38 202.9L1158.38 202.9" stroke="hsl(228.5, 77.2%, 51.5%)" stroke-width="1.5"></path><path d="M1158.38 202.9L1105.98 360.97" stroke="hsl(228.5, 77.2%, 51.5%)" stroke-width="1.5"></path><path d="M1160.25 497.26L1160.25 497.26" stroke="hsl(228.5, 77.2%, 51.5%)" stroke-width="1.5"></path><path d="M1160.25 497.26L1272.45 498.71" stroke="hsl(228.5, 77.2%, 51.5%)" stroke-width="1.5"></path><path d="M1160.25 497.26L1264.13 396.5" stroke="hsl(228.5, 77.2%, 51.5%)" stroke-width="1.5"></path><path d="M1143.7 669.48L1143.7 669.48" stroke="hsl(228.5, 77.2%, 51.5%)" stroke-width="1.5"></path><path d="M1143.7 669.48L1306.21 709.89" stroke="hsl(228.5, 77.2%, 51.5%)" stroke-width="1.5"></path><path d="M1143.7 669.48L1160.25 497.26" stroke="hsl(228.5, 77.2%, 51.5%)" stroke-width="1.5"></path><path d="M1143.7 669.48L1004.32 515.07" stroke="hsl(228.5, 77.2%, 51.5%)" stroke-width="1.5"></path><path d="M1143.7 669.48L1272.45 498.71" stroke="hsl(228.5, 77.2%, 51.5%)" stroke-width="1.5"></path><path d="M1261.03 -78.92L1261.03 -78.92" stroke="hsl(228.5, 77.2%, 51.5%)" stroke-width="1.5"></path><path d="M1261.03 -78.92L1419.56 -38.4" stroke="hsl(228.5, 77.2%, 51.5%)" stroke-width="1.5"></path><path d="M1261.03 -78.92L1431.71 44.04" stroke="hsl(228.5, 77.2%, 51.5%)" stroke-width="1.5"></path><path d="M1261.03 -78.92L1128.41 93.25" stroke="hsl(228.5, 77.2%, 51.5%)" stroke-width="1.5"></path><path d="M1261.03 -78.92L1158.38 202.9" stroke="hsl(228.5, 77.2%, 51.5%)" stroke-width="1.5"></path><path d="M1264.13 396.5L1264.13 396.5" stroke="hsl(228.5, 77.2%, 51.5%)" stroke-width="1.5"></path><path d="M1264.13 396.5L1272.45 498.71" stroke="hsl(228.5, 77.2%, 51.5%)" stroke-width="1.5"></path><path d="M1264.13 396.5L1105.98 360.97" stroke="hsl(228.5, 77.2%, 51.5%)" stroke-width="1.5"></path><path d="M1264.13 396.5L1436.74 358.33" stroke="hsl(228.5, 77.2%, 51.5%)" stroke-width="1.5"></path><path d="M1272.45 498.71L1272.45 498.71" stroke="hsl(228.5, 77.2%, 51.5%)" stroke-width="1.5"></path><path d="M1272.45 498.71L1420.17 517.58" stroke="hsl(228.5, 77.2%, 51.5%)" stroke-width="1.5"></path><path d="M1272.45 498.71L1426.89 641.69" stroke="hsl(228.5, 77.2%, 51.5%)" stroke-width="1.5"></path><path d="M1306.21 709.89L1306.21 709.89" stroke="hsl(228.5, 77.2%, 51.5%)" stroke-width="1.5"></path><path d="M1306.21 709.89L1426.89 641.69" stroke="hsl(228.5, 77.2%, 51.5%)" stroke-width="1.5"></path><path d="M1306.21 709.89L1272.45 498.71" stroke="hsl(228.5, 77.2%, 51.5%)" stroke-width="1.5"></path><path d="M1306.21 709.89L1420.17 517.58" stroke="hsl(228.5, 77.2%, 51.5%)" stroke-width="1.5"></path><path d="M1419.56 -38.4L1419.56 -38.4" stroke="hsl(228.5, 77.2%, 51.5%)" stroke-width="1.5"></path><path d="M1419.56 -38.4L1431.71 44.04" stroke="hsl(228.5, 77.2%, 51.5%)" stroke-width="1.5"></path><path d="M1419.56 -38.4L1608.79 -106.75" stroke="hsl(228.5, 77.2%, 51.5%)" stroke-width="1.5"></path><path d="M1419.56 -38.4L1396.72 189.42" stroke="hsl(228.5, 77.2%, 51.5%)" stroke-width="1.5"></path><path d="M1431.71 44.04L1431.71 44.04" stroke="hsl(228.5, 77.2%, 51.5%)" stroke-width="1.5"></path><path d="M1431.71 44.04L1396.72 189.42" stroke="hsl(228.5, 77.2%, 51.5%)" stroke-width="1.5"></path><path d="M1431.71 44.04L1541.86 192.66" stroke="hsl(228.5, 77.2%, 51.5%)" stroke-width="1.5"></path><path d="M1396.72 189.42L1396.72 189.42" stroke="hsl(228.5, 77.2%, 51.5%)" stroke-width="1.5"></path><path d="M1396.72 189.42L1541.86 192.66" stroke="hsl(228.5, 77.2%, 51.5%)" stroke-width="1.5"></path><path d="M1420.17 517.58L1420.17 517.58" stroke="hsl(228.5, 77.2%, 51.5%)" stroke-width="1.5"></path><path d="M1420.17 517.58L1426.89 641.69" stroke="hsl(228.5, 77.2%, 51.5%)" stroke-width="1.5"></path><path d="M1420.17 517.58L1606.2 538.23" stroke="hsl(228.5, 77.2%, 51.5%)" stroke-width="1.5"></path><path d="M1426.89 641.69L1426.89 641.69" stroke="hsl(228.5, 77.2%, 51.5%)" stroke-width="1.5"></path><path d="M1426.89 641.69L1607.07 659.39" stroke="hsl(228.5, 77.2%, 51.5%)" stroke-width="1.5"></path><path d="M1426.89 641.69L1606.2 538.23" stroke="hsl(228.5, 77.2%, 51.5%)" stroke-width="1.5"></path><path d="M1608.79 -106.75L1608.79 -106.75" stroke="hsl(228.5, 77.2%, 51.5%)" stroke-width="1.5"></path><path d="M1608.79 -106.75L1431.71 44.04" stroke="hsl(228.5, 77.2%, 51.5%)" stroke-width="1.5"></path><path d="M1608.79 -106.75L1541.86 192.66" stroke="hsl(228.5, 77.2%, 51.5%)" stroke-width="1.5"></path><path d="M1608.79 -106.75L1261.03 -78.92" stroke="hsl(228.5, 77.2%, 51.5%)" stroke-width="1.5"></path><path d="M1541.86 192.66L1541.86 192.66" stroke="hsl(228.5, 77.2%, 51.5%)" stroke-width="1.5"></path><path d="M1541.86 192.66L1436.74 358.33" stroke="hsl(228.5, 77.2%, 51.5%)" stroke-width="1.5"></path><path d="M1606.2 538.23L1606.2 538.23" stroke="hsl(228.5, 77.2%, 51.5%)" stroke-width="1.5"></path><path d="M1606.2 538.23L1607.07 659.39" stroke="hsl(228.5, 77.2%, 51.5%)" stroke-width="1.5"></path><path d="M1607.07 659.39L1607.07 659.39" stroke="hsl(228.5, 77.2%, 51.5%)" stroke-width="1.5"></path><circle r="25" cx="79.24" cy="494.47" fill="url(&quot;#SvgjsRadialGradient1105&quot;)"></circle><circle r="25" cx="110.85" cy="693" fill="url(&quot;#SvgjsRadialGradient1105&quot;)"></circle><circle r="25" cx="232.35" cy="515.9" fill="url(&quot;#SvgjsRadialGradient1105&quot;)"></circle><circle r="25" cx="670.77" cy="378.14" fill="url(&quot;#SvgjsRadialGradient1105&quot;)"></circle><circle r="25" cx="1105.98" cy="360.97" fill="url(&quot;#SvgjsRadialGradient1105&quot;)"></circle><circle r="25" cx="1295.67" cy="62.59" fill="url(&quot;#SvgjsRadialGradient1105&quot;)"></circle><circle r="25" cx="1254.49" cy="231.25" fill="url(&quot;#SvgjsRadialGradient1105&quot;)"></circle><circle r="25" cx="1436.74" cy="358.33" fill="url(&quot;#SvgjsRadialGradient1105&quot;)"></circle><circle r="5" cx="-50.29" cy="685.35" fill="#8b9ad9"></circle><circle r="5" cx="200.64" cy="661.13" fill="#8b9ad9"></circle><circle r="5" cx="352.95" cy="548.82" fill="#8b9ad9"></circle><circle r="5" cx="348.83" cy="701.8" fill="#8b9ad9"></circle><circle r="5" cx="502.8" cy="403.55" fill="#8b9ad9"></circle><circle r="5" cx="492.26" cy="549.96" fill="#8b9ad9"></circle><circle r="5" cx="559.89" cy="646.45" fill="#8b9ad9"></circle><circle r="5" cx="661.34" cy="543.19" fill="#8b9ad9"></circle><circle r="5" cx="657.87" cy="672.18" fill="#8b9ad9"></circle><circle r="5" cx="835.36" cy="345.09" fill="#8b9ad9"></circle><circle r="5" cx="836.15" cy="527.76" fill="#8b9ad9"></circle><circle r="5" cx="811.98" cy="639.81" fill="#8b9ad9"></circle><circle r="5" cx="987.99" cy="233.51" fill="#8b9ad9"></circle><circle r="5" cx="987.52" cy="351.33" fill="#8b9ad9"></circle><circle r="5" cx="1004.32" cy="515.07" fill="#8b9ad9"></circle><circle r="5" cx="1007.55" cy="679.29" fill="#8b9ad9"></circle><circle r="5" cx="1128.41" cy="93.25" fill="#8b9ad9"></circle><circle r="5" cx="1158.38" cy="202.9" fill="#8b9ad9"></circle><circle r="5" cx="1160.25" cy="497.26" fill="#8b9ad9"></circle><circle r="5" cx="1143.7" cy="669.48" fill="#8b9ad9"></circle><circle r="5" cx="1261.03" cy="-78.92" fill="#8b9ad9"></circle><circle r="5" cx="1264.13" cy="396.5" fill="#8b9ad9"></circle><circle r="5" cx="1272.45" cy="498.71" fill="#8b9ad9"></circle><circle r="5" cx="1306.21" cy="709.89" fill="#8b9ad9"></circle><circle r="5" cx="1419.56" cy="-38.4" fill="#8b9ad9"></circle><circle r="5" cx="1431.71" cy="44.04" fill="#8b9ad9"></circle><circle r="5" cx="1396.72" cy="189.42" fill="#8b9ad9"></circle><circle r="5" cx="1420.17" cy="517.58" fill="#8b9ad9"></circle><circle r="5" cx="1426.89" cy="641.69" fill="#8b9ad9"></circle><circle r="5" cx="1608.79" cy="-106.75" fill="#8b9ad9"></circle><circle r="5" cx="1541.86" cy="192.66" fill="#8b9ad9"></circle><circle r="5" cx="1606.2" cy="538.23" fill="#8b9ad9"></circle><circle r="5" cx="1607.07" cy="659.39" fill="#8b9ad9"></circle></g><defs><mask id="SvgjsMask1104"><rect width="1440" height="560" fill="#ffffff"></rect></mask><radialGradient id="SvgjsRadialGradient1105"><stop stop-color="#ffffff" offset="0.1"></stop><stop stop-color="#1735b3" offset="0.2"></stop><stop stop-color="rgba(23, 53, 179, 0)" offset="1"></stop></radialGradient></defs></svg>